<svg xmlns="http://www.w3.org/2000/svg" xmlns:xlink="http://www.w3.org/1999/xlink" width="500" zoomAndPan="magnify" viewBox="0 0 375 374.999991" height="500" preserveAspectRatio="xMidYMid meet" version="1.2"><defs><clipPath id="a1924acb6d"><path d="M 161 156 L 205 156 L 205 220.839844 L 161 220.839844 Z M 161 156 "/></clipPath><clipPath id="31b4512b62"><path d="M 0 154.089844 L 69 154.089844 L 69 220 L 0 220 Z M 0 154.089844 "/></clipPath><clipPath id="c0e81df5be"><path d="M 216 154.089844 L 262 154.089844 L 262 207 L 216 207 Z M 216 154.089844 "/></clipPath></defs><g id="a62552754f"><path style=" stroke:none;fill-rule:nonzero;fill:#000000;fill-opacity:1;" d="M 129.007812 164.480469 C 129.089844 163.351562 128.929688 162.261719 128.527344 161.207031 C 128.121094 160.152344 127.511719 159.230469 126.699219 158.445312 L 126.824219 158.261719 C 127.867188 158.585938 128.78125 159.128906 129.566406 159.882812 C 130.355469 160.636719 130.9375 161.527344 131.308594 162.550781 C 132.867188 157.203125 138.84375 155.273438 143.574219 155.902344 L 143.574219 156.148438 C 140.089844 156.828125 137.535156 159.257812 137.535156 165.230469 L 137.535156 197.019531 C 137.535156 197.019531 139.03125 198.390625 139.464844 198.699219 C 140.398438 199.570312 140.960938 200.007812 141.894531 200.007812 C 142.585938 199.964844 143.207031 199.738281 143.761719 199.328125 C 143.859375 199.234375 143.960938 199.152344 144.074219 199.078125 L 144.382812 199.515625 L 135.980469 206.300781 L 129.007812 199.707031 Z M 129.007812 164.480469 "/><path style=" stroke:none;fill-rule:nonzero;fill:#000000;fill-opacity:1;" d="M 99.117188 199.503906 L 98.804688 199.066406 C 98.484375 199.382812 98.117188 199.621094 97.699219 199.78125 C 97.28125 199.945312 96.847656 200.015625 96.398438 200 C 95.949219 199.980469 95.523438 199.875 95.121094 199.679688 C 94.714844 199.488281 94.367188 199.21875 94.074219 198.878906 C 92.765625 197.824219 91.832031 197.015625 91.832031 197.015625 L 91.832031 176.921875 L 86.53125 170.203125 L 76.507812 176.992188 L 76.507812 165.546875 C 76.507812 159.699219 78.75 157.023438 82.546875 156.277344 L 82.546875 155.964844 C 75.636719 155.21875 71.277344 158.953125 70.28125 162.617188 C 69.941406 161.570312 69.375 160.667969 68.582031 159.90625 C 67.785156 159.144531 66.859375 158.617188 65.796875 158.324219 L 65.671875 158.511719 C 66.488281 159.28125 67.097656 160.191406 67.5 161.238281 C 67.90625 162.285156 68.066406 163.367188 67.980469 164.484375 L 67.980469 199.820312 L 74.953125 206.46875 L 81.183594 200.996094 L 76.449219 196.890625 L 76.449219 177.917969 L 79.8125 175.609375 L 83.234375 180.460938 L 83.234375 199.808594 L 90.710938 206.460938 Z M 99.117188 199.503906 "/><g clip-rule="nonzero" clip-path="url(#a1924acb6d)"><path style=" stroke:none;fill-rule:nonzero;fill:#000000;fill-opacity:1;" d="M 204.09375 162.675781 L 198.179688 168.460938 L 192.265625 162.675781 L 198.179688 156.890625 Z M 177.570312 208.648438 C 177.097656 207.984375 176.550781 207.390625 175.929688 206.867188 C 175.304688 206.34375 174.625 205.90625 173.886719 205.558594 C 173.152344 205.207031 172.382812 204.960938 171.582031 204.808594 C 170.785156 204.65625 169.976562 204.609375 169.164062 204.667969 C 168.683594 204.644531 168.207031 204.667969 167.730469 204.742188 C 167.257812 204.8125 166.792969 204.933594 166.339844 205.09375 C 165.886719 205.257812 165.457031 205.464844 165.042969 205.710938 C 164.632812 205.960938 164.25 206.246094 163.894531 206.570312 C 163.539062 206.890625 163.21875 207.246094 162.933594 207.632812 C 162.648438 208.019531 162.402344 208.429688 162.195312 208.863281 C 161.992188 209.300781 161.832031 209.75 161.714844 210.214844 C 161.597656 210.683594 161.527344 211.15625 161.503906 211.632812 C 161.503906 216.734375 166.050781 220.839844 175.015625 220.839844 C 190.457031 220.839844 194.691406 209.457031 203.59375 209.457031 L 203.59375 176.980469 L 198.179688 170.136719 L 191.453125 175.738281 L 195.121094 180.402344 L 195.121094 206.53125 C 195.121094 214.429688 185.78125 218.476562 180.054688 218.476562 C 173.953125 218.476562 169.40625 215.242188 169.40625 211.320312 C 169.410156 211.054688 169.4375 210.785156 169.492188 210.523438 C 169.546875 210.261719 169.628906 210.003906 169.734375 209.757812 C 169.839844 209.511719 169.972656 209.277344 170.125 209.058594 C 170.277344 208.835938 170.453125 208.632812 170.648438 208.445312 C 170.84375 208.261719 171.054688 208.097656 171.28125 207.953125 C 171.507812 207.808594 171.75 207.691406 172 207.59375 C 172.253906 207.5 172.511719 207.429688 172.777344 207.386719 C 173.042969 207.347656 173.308594 207.328125 173.578125 207.339844 C 174.269531 207.316406 174.933594 207.433594 175.574219 207.695312 C 176.210938 207.953125 176.769531 208.335938 177.246094 208.832031 Z M 177.570312 208.648438 "/></g><g clip-rule="nonzero" clip-path="url(#31b4512b62)"><path style=" stroke:none;fill-rule:nonzero;fill:#000000;fill-opacity:1;" d="M 42.957031 199.566406 L 46.503906 196.394531 C 46.378906 196.023438 45.882812 194.589844 45.320312 192.785156 C 44.136719 188.496094 42.269531 181.960938 42.269531 181.960938 L 39.46875 179.410156 L 39.46875 182.328125 C 39.46875 188.546875 34.984375 191.722656 28.886719 194.273438 C 37.414062 194.769531 42.085938 198.753906 42.957031 199.566406 M 41.464844 154.839844 C 39.945312 157.722656 39.28125 160.792969 39.472656 164.046875 L 39.472656 174.308594 L 52.851562 154.648438 C 54.753906 156.074219 56.890625 156.800781 59.265625 156.820312 C 61.625 156.9375 63.785156 156.335938 65.742188 155.019531 L 65.925781 155.082031 C 65.179688 157.445312 61.507812 163.417969 55.59375 163.417969 C 53.226562 163.359375 51.050781 162.695312 49.054688 161.425781 L 42.640625 170.882812 L 49.925781 176.667969 C 49.925781 176.667969 53.039062 187.054688 54.285156 191.101562 C 55.65625 195.582031 56.964844 196.140625 59.582031 197.320312 C 60.640625 197.820312 61.699219 198.253906 63.195312 198.9375 C 64.113281 199.417969 65.085938 199.644531 66.121094 199.617188 C 66.777344 199.601562 67.378906 199.417969 67.925781 199.058594 L 68.238281 199.429688 L 60.953125 206.398438 C 60.953125 206.398438 56.410156 204.347656 53.171875 202.914062 C 51.785156 202.386719 50.542969 201.625 49.445312 200.625 C 48.347656 199.625 47.472656 198.460938 46.820312 197.128906 C 43.644531 199.804688 39.722656 203.410156 36.546875 206.335938 C 34.398438 204.921875 32.085938 203.855469 29.613281 203.144531 C 27.136719 202.433594 24.613281 202.109375 22.039062 202.167969 C 11.144531 202.167969 1.492188 207.328125 1.492188 213.367188 C 1.492188 217.222656 4.359375 219.277344 7.78125 219.277344 L 7.71875 219.835938 C 7.261719 219.871094 6.804688 219.859375 6.347656 219.800781 C 5.894531 219.738281 5.449219 219.632812 5.015625 219.480469 C 4.585938 219.324219 4.171875 219.128906 3.78125 218.886719 C 3.390625 218.644531 3.027344 218.367188 2.695312 218.050781 C 2.363281 217.734375 2.070312 217.382812 1.808594 217.003906 C 1.550781 216.625 1.335938 216.222656 1.164062 215.796875 C 0.988281 215.375 0.863281 214.933594 0.78125 214.484375 C 0.699219 214.03125 0.667969 213.574219 0.683594 213.117188 C 0.683594 202.851562 13.820312 195.136719 25.339844 194.390625 C 26.523438 192.835938 28.203125 190.90625 28.203125 185.558594 L 28.203125 170.515625 C 28.101562 169.09375 28.472656 167.808594 29.324219 166.660156 C 28.957031 167.984375 28.808594 169.332031 28.890625 170.703125 L 28.890625 186.195312 C 28.972656 187.699219 28.769531 189.160156 28.273438 190.582031 C 27.777344 192.007812 27.027344 193.28125 26.027344 194.40625 C 26.460938 194.40625 26.839844 194.34375 27.269531 194.34375 L 27.949219 194.34375 C 30.503906 191.480469 30.753906 188.308594 30.753906 185.324219 L 30.753906 170.203125 C 30.816406 165.164062 32.433594 163.238281 35.609375 160.1875 C 36.355469 159.441406 37.164062 158.695312 37.726562 158.136719 L 37.601562 158.011719 C 33.738281 160.871094 30.566406 163.167969 25.582031 163.167969 C 21.597656 163.167969 18.175781 161.425781 14.441406 161.425781 C 12.621094 161.394531 11 161.957031 9.585938 163.105469 L 9.460938 163.042969 C 11.078125 160.367188 15.441406 154.085938 21.914062 154.085938 C 26.769531 154.085938 29.011719 156.136719 33.808594 156.136719 C 36.371094 156.242188 38.816406 155.765625 41.152344 154.707031 Z M 41.464844 154.839844 "/></g><path style=" stroke:none;fill-rule:nonzero;fill:#000000;fill-opacity:1;" d="M 152.539062 191.292969 L 160.011719 186.5625 L 152.539062 176.796875 Z M 144.007812 179.410156 L 158.207031 170.078125 L 167.730469 182.519531 L 152.539062 192.039062 L 152.539062 195.957031 C 152.539062 195.957031 158.703125 198.941406 160.882812 200 C 161.925781 200.59375 163.046875 200.90625 164.246094 200.933594 C 165.523438 200.878906 166.746094 200.589844 167.914062 200.0625 C 168.660156 199.6875 169.347656 199.382812 169.347656 199.382812 L 169.347656 200.199219 L 156.894531 206.480469 L 144.003906 199.886719 Z M 144.007812 179.410156 "/><path style=" stroke:none;fill-rule:nonzero;fill:#000000;fill-opacity:1;" d="M 332.980469 191.292969 L 340.453125 186.5625 L 332.980469 176.796875 Z M 324.386719 179.410156 L 338.644531 170.078125 L 348.171875 182.519531 L 332.976562 192.039062 L 332.976562 195.957031 C 332.976562 195.957031 339.140625 198.941406 341.320312 200 C 342.363281 200.59375 343.484375 200.90625 344.683594 200.933594 C 345.964844 200.878906 347.1875 200.589844 348.351562 200.0625 C 348.601562 199.9375 349.535156 199.503906 349.535156 199.503906 L 349.785156 200.125 L 337.332031 206.40625 L 324.441406 199.8125 L 324.441406 179.410156 Z M 324.386719 179.410156 "/><path style=" stroke:none;fill-rule:nonzero;fill:#000000;fill-opacity:1;" d="M 177.878906 191.292969 L 185.351562 186.5625 L 177.878906 176.796875 Z M 169.289062 179.410156 L 183.546875 170.078125 L 193.070312 182.519531 L 177.878906 192.039062 L 177.878906 195.957031 C 177.878906 195.957031 184.042969 198.941406 186.222656 200 C 187.285156 200.507812 188.40625 200.757812 189.585938 200.746094 C 190.863281 200.679688 192.066406 200.347656 193.195312 199.753906 C 193.875 199.378906 195.1875 198.757812 195.1875 198.757812 L 195.1875 199.503906 L 182.175781 206.472656 L 169.285156 200.25 Z M 169.289062 179.410156 "/><path style=" stroke:none;fill-rule:nonzero;fill:#000000;fill-opacity:1;" d="M 98.742188 179.410156 L 112.628906 170.140625 L 122.089844 178.910156 L 122.089844 196.890625 C 122.089844 196.890625 123.523438 198.011719 124.828125 199.0625 C 125.417969 199.691406 126.144531 200.046875 127.003906 200.121094 C 127.8125 200.011719 128.5 199.65625 129.058594 199.0625 L 129.433594 199.5625 L 121.089844 206.464844 L 113.8125 200.007812 L 107.398438 206.476562 L 98.742188 199.753906 Z M 107.273438 196.578125 C 107.273438 196.578125 109.886719 198.570312 110.386719 199.003906 C 110.902344 199.515625 111.527344 199.789062 112.253906 199.820312 C 112.730469 199.808594 113.148438 199.644531 113.5 199.320312 L 113.5 183.082031 L 107.210938 176.984375 L 107.210938 196.578125 Z M 107.273438 196.578125 "/><path style=" stroke:none;fill-rule:nonzero;fill:#000000;fill-opacity:1;" d="M 301.222656 176.984375 L 295.871094 170.140625 L 285.40625 176.984375 L 280.054688 170.140625 L 273.515625 175.117188 L 276.9375 179.410156 L 276.9375 199.757812 L 284.910156 206.410156 L 290.449219 201.25 L 285.46875 196.832031 L 285.46875 177.730469 L 289.453125 175.117188 L 292.753906 179.285156 L 292.753906 199.621094 L 300.722656 206.273438 L 306.265625 201.113281 L 301.285156 196.699219 L 301.285156 177.605469 L 305.457031 174.929688 L 308.816406 179.160156 L 308.816406 199.503906 L 316.789062 206.15625 L 324.695312 199.746094 L 324.449219 199.375 L 324.199219 199.5 C 323.734375 199.835938 323.214844 199.984375 322.640625 199.933594 C 321.46875 199.90625 320.472656 199.46875 319.652344 198.628906 C 319.03125 198.070312 317.34375 196.578125 317.34375 196.578125 L 317.34375 176.734375 L 311.996094 169.890625 Z M 301.222656 176.984375 "/><path style=" stroke:none;fill-rule:nonzero;fill:#000000;fill-opacity:1;" d="M 374.320312 170.453125 L 364.859375 183.203125 L 372.578125 188.738281 L 372.578125 198.070312 L 361.371094 206.53125 C 360.296875 205.769531 359.132812 205.191406 357.878906 204.796875 C 356.625 204.402344 355.339844 204.210938 354.023438 204.222656 C 351.574219 204.277344 349.371094 205.046875 347.421875 206.53125 L 347.050781 206.21875 L 357.011719 192.78125 L 349.914062 188.863281 L 349.914062 178.472656 L 360.933594 170.074219 C 361.914062 170.800781 362.988281 171.339844 364.152344 171.703125 C 365.316406 172.066406 366.507812 172.230469 367.726562 172.191406 C 368.847656 172.207031 369.933594 172.03125 370.992188 171.667969 C 372.050781 171.304688 373.019531 170.773438 373.890625 170.074219 Z M 371.394531 173.1875 L 371.207031 173.0625 C 370.460938 173.933594 367.222656 177.292969 363.175781 177.292969 C 361.414062 177.335938 359.796875 176.882812 358.320312 175.925781 L 358.320312 183.699219 L 362.054688 185.816406 Z M 364.046875 193.714844 L 359.4375 190.542969 L 349.792969 203.484375 L 349.980469 203.667969 C 351.347656 202.300781 354.398438 199.316406 358.632812 199.316406 C 360.5625 199.285156 362.367188 199.738281 364.050781 200.683594 Z M 364.046875 193.714844 "/><path style=" stroke:none;fill-rule:nonzero;fill:#000000;fill-opacity:1;" d="M 258.261719 175.054688 L 264.863281 170.078125 L 270.21875 176.921875 L 270.21875 196.765625 C 270.21875 196.765625 271.339844 197.761719 272.148438 198.507812 C 272.929688 199.265625 273.863281 199.660156 274.953125 199.691406 C 275.679688 199.6875 276.34375 199.480469 276.941406 199.066406 C 277.003906 199.128906 277.191406 199.378906 277.191406 199.378906 L 269.59375 206.285156 C 268.472656 205.289062 261.6875 199.691406 261.6875 199.691406 L 261.6875 179.347656 Z M 264.800781 156.890625 L 258.882812 162.675781 L 264.800781 168.460938 L 270.714844 162.675781 Z M 264.800781 156.890625 "/><g clip-rule="nonzero" clip-path="url(#c0e81df5be)"><path style=" stroke:none;fill-rule:nonzero;fill:#000000;fill-opacity:1;" d="M 241.453125 198.945312 C 243.097656 198.953125 244.71875 198.746094 246.308594 198.324219 L 246.308594 165.226562 C 245.0625 165.164062 243.507812 164.976562 242.757812 164.914062 L 242.757812 182.894531 C 242.757812 191.605469 233.667969 194.589844 231.117188 195.898438 C 232.660156 196.886719 234.308594 197.640625 236.066406 198.15625 C 237.824219 198.675781 239.621094 198.9375 241.453125 198.945312 M 230.742188 195.585938 C 232.425781 194.027344 233.917969 191.292969 233.917969 186.9375 L 233.917969 162.988281 C 233.421875 162.863281 232.425781 162.613281 231.988281 162.488281 L 231.988281 187.003906 C 232.082031 188.398438 231.917969 189.757812 231.5 191.089844 C 231.082031 192.421875 230.433594 193.628906 229.558594 194.71875 C 229.871094 194.96875 230.433594 195.339844 230.742188 195.589844 M 261.066406 155.027344 C 260.988281 155.757812 260.839844 156.472656 260.625 157.171875 C 260.410156 157.875 260.128906 158.546875 259.785156 159.195312 C 259.441406 159.839844 259.039062 160.449219 258.578125 161.019531 C 258.121094 161.589844 257.609375 162.113281 257.050781 162.585938 C 256.488281 163.058594 255.890625 163.476562 255.25 163.835938 C 254.609375 164.195312 253.941406 164.488281 253.246094 164.722656 C 252.550781 164.953125 251.839844 165.117188 251.113281 165.214844 C 250.386719 165.308594 249.65625 165.335938 248.925781 165.292969 C 248.28125 165.304688 247.636719 165.285156 246.992188 165.230469 L 246.992188 198.136719 C 248.433594 197.671875 249.792969 197.042969 251.078125 196.242188 C 252.363281 195.445312 253.53125 194.503906 254.582031 193.417969 C 255.636719 192.335938 256.542969 191.140625 257.300781 189.832031 C 258.0625 188.523438 258.652344 187.144531 259.074219 185.695312 L 259.320312 185.757812 C 259.28125 186.441406 259.210938 187.121094 259.105469 187.800781 C 259.003906 188.476562 258.867188 189.148438 258.699219 189.8125 C 258.535156 190.476562 258.335938 191.132812 258.109375 191.777344 C 257.882812 192.425781 257.625 193.058594 257.335938 193.679688 C 257.046875 194.304688 256.730469 194.910156 256.386719 195.503906 C 256.042969 196.09375 255.671875 196.671875 255.273438 197.226562 C 254.875 197.785156 254.449219 198.324219 254 198.839844 C 253.550781 199.359375 253.082031 199.855469 252.585938 200.328125 C 252.089844 200.804688 251.574219 201.253906 251.035156 201.679688 C 250.496094 202.101562 249.941406 202.503906 249.367188 202.875 C 248.789062 203.25 248.199219 203.59375 247.589844 203.910156 C 246.984375 204.230469 246.363281 204.519531 245.726562 204.777344 C 245.09375 205.039062 244.449219 205.265625 243.792969 205.464844 C 243.136719 205.664062 242.472656 205.832031 241.800781 205.96875 C 241.128906 206.105469 240.449219 206.210938 239.769531 206.285156 C 239.085938 206.359375 238.402344 206.402344 237.71875 206.410156 C 225.390625 206.410156 216.238281 197.015625 216.238281 184.203125 C 216.203125 182.210938 216.433594 180.25 216.917969 178.320312 C 217.40625 176.390625 218.136719 174.554688 219.109375 172.820312 C 220.082031 171.082031 221.265625 169.5 222.660156 168.078125 C 224.050781 166.652344 225.605469 165.433594 227.320312 164.421875 L 227.503906 164.605469 C 225.839844 166.492188 224.578125 168.613281 223.714844 170.976562 C 222.855469 173.339844 222.460938 175.777344 222.523438 178.292969 C 222.484375 179.800781 222.601562 181.296875 222.875 182.78125 C 223.152344 184.265625 223.578125 185.703125 224.15625 187.097656 C 224.738281 188.492188 225.457031 189.808594 226.3125 191.050781 C 227.171875 192.292969 228.148438 193.433594 229.25 194.46875 C 230.039062 193.34375 230.621094 192.117188 230.996094 190.796875 C 231.367188 189.472656 231.511719 188.125 231.421875 186.753906 L 231.421875 162.425781 C 230.296875 162.171875 229.15625 162.023438 228 161.992188 C 226.917969 161.933594 225.839844 162 224.773438 162.191406 C 223.707031 162.382812 222.675781 162.695312 221.683594 163.128906 C 220.6875 163.558594 219.757812 164.101562 218.886719 164.75 C 218.019531 165.398438 217.238281 166.136719 216.542969 166.96875 L 216.355469 166.84375 C 217.414062 159.441406 222.769531 154.152344 232.542969 154.152344 C 241.324219 154.152344 245.867188 157.386719 252.71875 157.386719 C 254.179688 157.433594 255.617188 157.246094 257.019531 156.835938 C 258.425781 156.421875 259.730469 155.796875 260.9375 154.96875 Z M 261.066406 155.027344 "/></g></g></svg>